<svg width="867" height="1077" viewBox="0 0 867 1077" fill="none" xmlns="http://www.w3.org/2000/svg">
<rect width="868" height="1080" fill="black" fill-opacity="0" transform="translate(-1 -3)"/>
<rect x="-1" y="-3" width="768" height="1080" fill="#252454"/>
<path d="M493.44 335.76C495.296 335.76 497.536 335.824 499.392 335.952V330.64C497.536 330.896 495.232 331.024 493.44 331.024H467.52C465.472 331.024 463.552 330.832 461.76 330.64V335.952C463.36 335.824 465.472 335.76 467.584 335.76H493.44ZM459.712 347.024C457.728 347.024 455.872 346.896 454.144 346.704V352.016C455.872 351.888 457.728 351.888 459.712 351.888H478.848C478.656 357.904 477.952 363.28 475.136 367.76C472.64 371.792 468.032 375.504 463.04 377.552L467.776 381.008C473.216 378.256 478.08 373.648 480.384 369.36C482.944 364.624 483.968 358.8 484.16 351.888H501.568C503.104 351.888 505.152 351.952 506.56 352.016V346.704C505.024 346.96 502.912 347.024 501.568 347.024H459.712ZM554.332 339.408C551.068 343.504 544.22 348.88 537.819 352.592C532.507 355.664 523.804 359.568 515.611 361.36L518.363 366.032C525.34 364.048 533.02 360.72 538.459 357.84V377.424C538.459 379.344 538.331 381.968 538.204 382.928H544.091C543.835 381.968 543.771 379.344 543.771 377.424V354.768C549.596 351.12 555.292 346.448 558.299 343.184L554.332 339.408ZM625.051 355.856C626.459 355.856 628.764 355.856 630.236 356.048V350.8C628.764 350.928 626.268 351.056 624.924 351.056H603.355V337.488H619.995C622.236 337.488 623.708 337.616 625.243 337.68V332.56C623.835 332.688 622.043 332.816 619.995 332.816H589.531C587.356 332.816 585.5 332.688 583.771 332.56V337.68C585.5 337.552 587.356 337.488 589.531 337.488H598.044V351.056H585.627C583.899 351.056 581.276 350.864 579.548 350.736V356.112C581.34 355.984 583.964 355.856 585.627 355.856H598.044V370.32C598.044 375.568 601.052 378.96 610.715 378.96C616.86 378.96 623.004 378.704 627.995 378.32L628.315 372.944C622.812 373.584 617.563 373.84 611.484 373.84C605.596 373.84 603.355 371.92 603.355 368.72V355.856H625.051ZM655.451 328.848L652.572 333.136C656.347 335.312 663.26 339.92 666.331 342.224L669.34 337.872C666.587 335.824 659.228 330.96 655.451 328.848ZM645.851 374.544L648.795 379.792C654.747 378.576 663.58 375.568 670.043 371.856C680.22 365.84 689.051 357.584 694.619 348.944L691.548 343.696C686.363 352.72 677.916 361.04 667.292 367.12C660.827 370.832 652.892 373.328 645.851 374.544ZM645.788 343.248L642.971 347.6C646.811 349.584 653.788 354.064 656.924 356.368L659.868 351.888C657.052 349.84 649.627 345.296 645.788 343.248ZM706.715 356.56C708.7 356.368 712.092 356.24 715.611 356.24H750.748C753.627 356.24 756.315 356.496 757.596 356.56V350.288C756.188 350.416 753.883 350.608 750.683 350.608H715.611C712.028 350.608 708.635 350.416 706.715 350.288V356.56Z" fill="white" fill-opacity="0.5"/>
<path d="M88.25 230.5V232.125H93.25V266.375H88.25V268H105.75C111.458 268 116.146 266.229 119.812 262.688C123.354 259.229 125.125 254.75 125.125 249.25C125.125 242.125 122.5 236.896 117.25 233.562C114 231.521 110.208 230.5 105.875 230.5H88.25ZM105.75 232.125C111.958 232.125 115.875 235.042 117.5 240.875C118.125 243.167 118.438 245.875 118.438 249C118.396 260.542 114.208 266.333 105.875 266.375H99.25V232.125H105.75ZM143.938 242.25C146.771 242.25 148.604 243.542 149.438 246.125C149.688 246.917 149.812 247.75 149.812 248.625C149.812 250.667 148.896 251.917 147.062 252.375C146.021 252.625 144.583 252.729 142.75 252.688L136.625 252.5C136.792 247.583 138.292 244.396 141.125 242.938C142 242.479 142.938 242.25 143.938 242.25ZM155 261.938L153.438 261.375C152.104 264.292 149.979 266.062 147.062 266.688C146.396 266.812 145.75 266.875 145.125 266.875C140.708 266.875 138 264.083 137 258.5C136.792 257.208 136.667 255.792 136.625 254.25L143.812 254.375C149.146 254.458 152.542 253.917 154 252.75C154.958 251.917 155.438 250.792 155.438 249.375C155.438 246.417 153.938 244.083 150.938 242.375C148.854 241.25 146.479 240.688 143.812 240.688C138.771 240.688 135.062 242.708 132.688 246.75C131.354 249.083 130.688 251.771 130.688 254.812C130.688 260.146 132.625 264.062 136.5 266.562C138.708 267.938 141.208 268.625 144 268.625C148.667 268.625 152.062 266.938 154.188 263.562C154.479 263.021 154.75 262.479 155 261.938ZM169.375 266.938C172.25 266.938 174.125 266.042 175 264.25C175.292 263.667 175.438 263.062 175.438 262.438C175.438 260.604 174.146 259.042 171.562 257.75C171.021 257.458 170.125 257.042 168.875 256.5C165.542 255.083 163.312 253.75 162.188 252.5C161.021 251.167 160.438 249.604 160.438 247.812C160.438 244.854 162.062 242.75 165.312 241.5C166.854 240.958 168.521 240.688 170.312 240.688C173.146 240.688 175.542 241.271 177.5 242.438C177.5 241.229 177.792 240.542 178.375 240.375C178.583 240.333 178.854 240.312 179.188 240.312V248.125H177.5C177.417 244.292 175.292 242.354 171.125 242.312C168.125 242.312 166.25 243.229 165.5 245.062C165.333 245.562 165.25 246.062 165.25 246.562C165.25 248.354 166.521 249.875 169.062 251.125C169.646 251.417 170.542 251.812 171.75 252.312C175.125 253.688 177.375 254.979 178.5 256.188C179.708 257.562 180.312 259.188 180.312 261.062C180.312 264.521 178.5 266.812 174.875 267.938C173.458 268.396 171.917 268.625 170.25 268.625C167.125 268.583 164.417 267.854 162.125 266.438C162.125 267.521 161.854 268.146 161.312 268.312C161.062 268.354 160.771 268.375 160.438 268.375V258.875H162.25C162.333 264.208 164.708 266.896 169.375 266.938ZM197.5 266.438H194.562V241.375H184.5V242.938H189.25V262.75C189.25 264.667 188.604 265.812 187.312 266.188C186.688 266.354 185.75 266.438 184.5 266.438V268H199.062C199.062 267.083 198.75 266.583 198.125 266.5C197.958 266.458 197.75 266.438 197.5 266.438ZM195.25 232.438C195.25 230.938 194.583 229.833 193.25 229.125C192.708 228.875 192.167 228.75 191.625 228.75C190.083 228.75 188.979 229.438 188.312 230.812C188.062 231.354 187.938 231.896 187.938 232.438C187.938 234.021 188.646 235.146 190.062 235.812C190.562 236.021 191.083 236.125 191.625 236.125C193.125 236.125 194.208 235.438 194.875 234.062C195.125 233.521 195.25 232.979 195.25 232.438ZM209.438 250.688C209.438 245.479 211.104 242.688 214.438 242.312C214.729 242.271 215.021 242.25 215.312 242.25C218.729 242.25 220.646 244.375 221.062 248.625C221.104 249.25 221.125 249.938 221.125 250.688C220.75 256.188 218.812 259.062 215.312 259.312C211.646 259.312 209.688 256.812 209.438 251.812C209.438 251.438 209.438 251.062 209.438 250.688ZM215.375 240.688C211.375 240.688 208.271 241.979 206.062 244.562C204.604 246.312 203.875 248.354 203.875 250.688C203.875 253.812 205.375 256.438 208.375 258.562C208.75 258.812 209.104 259.042 209.438 259.25C206.854 259.25 205.188 260.375 204.438 262.625C204.271 263.208 204.188 263.812 204.188 264.438C204.229 266.646 205.104 268.292 206.812 269.375C205.479 270.833 204.812 272.271 204.812 273.688C204.812 275.979 206.188 277.688 208.938 278.812C210.729 279.562 212.896 279.938 215.438 279.938C221.854 279.938 226.083 278.396 228.125 275.312C228.792 274.271 229.125 273.167 229.125 272C229.125 268.292 227.021 266.167 222.812 265.625C222.271 265.542 221.708 265.5 221.125 265.5L209.438 265.25C207.646 265.125 206.729 264.333 206.688 262.875C206.688 261.833 207.312 261.188 208.562 260.938C208.854 260.854 209.167 260.812 209.5 260.812L215.062 260.875H215.25C219.083 260.875 222.125 259.583 224.375 257C225.917 255.167 226.688 253.042 226.688 250.625C226.646 247.5 225.458 245.021 223.125 243.188C223.75 241.729 224.625 240.938 225.75 240.812C226.333 240.812 226.979 241.146 227.688 241.812C228.146 242.229 228.583 242.438 229 242.438C230.042 242.438 230.667 241.917 230.875 240.875C230.917 240.667 230.938 240.5 230.938 240.375C230.938 239 230.271 238.062 228.938 237.562C228.479 237.396 228 237.312 227.5 237.312C225.542 237.312 223.958 238.25 222.75 240.125C222.292 240.792 221.958 241.5 221.75 242.25C219.833 241.208 217.708 240.688 215.375 240.688ZM215.438 278.312C211.188 278.312 208.5 277.25 207.375 275.125C207.083 274.542 206.938 273.958 206.938 273.375C206.979 272.292 207.438 271.208 208.312 270.125C209.062 270.333 209.792 270.438 210.5 270.438L220.75 270.562C223.667 270.604 225.375 271.208 225.875 272.375C226.042 272.792 226.125 273.229 226.125 273.688C226.125 275.562 224.396 276.917 220.938 277.75C219.271 278.125 217.438 278.312 215.438 278.312ZM245.312 266.438H242.75V252.688C242.833 248.896 244.125 246.167 246.625 244.5C247.708 243.833 248.792 243.5 249.875 243.5C252.417 243.5 254.104 244.708 254.938 247.125C255.229 248.042 255.375 249.042 255.375 250.125V262.75C255.375 264.625 254.833 265.75 253.75 266.125C253.167 266.333 252.271 266.438 251.062 266.438V268H265.188C265.188 267.083 264.875 266.583 264.25 266.5C264.083 266.458 263.875 266.438 263.625 266.438H260.688V250.812C260.688 246.438 259.188 243.417 256.188 241.75C254.896 241.042 253.521 240.688 252.062 240.688C248.979 240.688 246.417 241.938 244.375 244.438C243.667 245.271 243.104 246.208 242.688 247.25L242.438 241.375H232.938V242.938H237.438V262.75C237.438 264.667 236.854 265.812 235.688 266.188C235.062 266.354 234.146 266.438 232.938 266.438V268H246.875C246.875 267.083 246.562 266.583 245.938 266.5C245.771 266.458 245.562 266.438 245.312 266.438ZM282.25 242.25C285.083 242.25 286.917 243.542 287.75 246.125C288 246.917 288.125 247.75 288.125 248.625C288.125 250.667 287.208 251.917 285.375 252.375C284.333 252.625 282.896 252.729 281.062 252.688L274.938 252.5C275.104 247.583 276.604 244.396 279.438 242.938C280.312 242.479 281.25 242.25 282.25 242.25ZM293.312 261.938L291.75 261.375C290.417 264.292 288.292 266.062 285.375 266.688C284.708 266.812 284.062 266.875 283.438 266.875C279.021 266.875 276.312 264.083 275.312 258.5C275.104 257.208 274.979 255.792 274.938 254.25L282.125 254.375C287.458 254.458 290.854 253.917 292.312 252.75C293.271 251.917 293.75 250.792 293.75 249.375C293.75 246.417 292.25 244.083 289.25 242.375C287.167 241.25 284.792 240.688 282.125 240.688C277.083 240.688 273.375 242.708 271 246.75C269.667 249.083 269 251.771 269 254.812C269 260.146 270.938 264.062 274.812 266.562C277.021 267.938 279.521 268.625 282.312 268.625C286.979 268.625 290.375 266.938 292.5 263.562C292.792 263.021 293.062 262.479 293.312 261.938ZM311.938 266.438H307.438V252.688C307.729 249.104 308.938 246.417 311.062 244.625C311.771 244.042 312.375 243.75 312.875 243.75C313.5 243.75 314.104 244.271 314.688 245.312C315.354 246.479 316.021 247.167 316.688 247.375C316.979 247.458 317.271 247.5 317.562 247.5C318.938 247.5 319.833 246.854 320.25 245.562C320.333 245.229 320.375 244.917 320.375 244.625C320.375 242.708 319.417 241.542 317.5 241.125C317.083 241.042 316.646 241 316.188 241C313.604 241 311.312 242.083 309.312 244.25C308.479 245.167 307.812 246.208 307.312 247.375L307.062 241.375H297.625V242.938H302.062V262.75C302.062 264.667 301.5 265.812 300.375 266.188C299.792 266.354 298.875 266.438 297.625 266.438V268H313.5C313.5 267.083 313.188 266.583 312.562 266.5C312.396 266.458 312.188 266.438 311.938 266.438Z" fill="white" fill-opacity="0.5"/>
<path d="M64.25 692L64.5625 679.312H63.1875L62 683.812C61.0417 687.479 59.4167 689.604 57.125 690.188C56.5833 690.312 56.0208 690.375 55.4375 690.375H47.25V656.125H52.5625V654.5H36.25V656.125H41.25V690.375H36.25V692H64.25ZM80.6875 666.25C83.5208 666.25 85.3542 667.542 86.1875 670.125C86.4375 670.917 86.5625 671.75 86.5625 672.625C86.5625 674.667 85.6458 675.917 83.8125 676.375C82.7708 676.625 81.3333 676.729 79.5 676.688L73.375 676.5C73.5417 671.583 75.0417 668.396 77.875 666.938C78.75 666.479 79.6875 666.25 80.6875 666.25ZM91.75 685.938L90.1875 685.375C88.8542 688.292 86.7292 690.062 83.8125 690.688C83.1458 690.812 82.5 690.875 81.875 690.875C77.4583 690.875 74.75 688.083 73.75 682.5C73.5417 681.208 73.4167 679.792 73.375 678.25L80.5625 678.375C85.8958 678.458 89.2917 677.917 90.75 676.75C91.7083 675.917 92.1875 674.792 92.1875 673.375C92.1875 670.417 90.6875 668.083 87.6875 666.375C85.6042 665.25 83.2292 664.688 80.5625 664.688C75.5208 664.688 71.8125 666.708 69.4375 670.75C68.1042 673.083 67.4375 675.771 67.4375 678.812C67.4375 684.146 69.375 688.062 73.25 690.562C75.4583 691.938 77.9583 692.625 80.75 692.625C85.4167 692.625 88.8125 690.938 90.9375 687.562C91.2292 687.021 91.5 686.479 91.75 685.938ZM118.562 692.625C121.562 692.625 123.354 691.125 123.938 688.125C124.021 687.5 124.083 686.833 124.125 686.125L122.5 686.062C122.208 689.062 121.417 690.583 120.125 690.625C119.083 690.542 118.542 689.479 118.5 687.438V674.25C118.417 667.917 114.979 664.729 108.188 664.688C103.354 664.688 100.146 665.792 98.5625 668C98.0625 668.708 97.8125 669.417 97.8125 670.125C97.8125 671.458 98.4375 672.271 99.6875 672.562C99.9792 672.604 100.25 672.625 100.5 672.625C101.625 672.625 102.438 671.958 102.938 670.625C103.521 669 103.875 668.083 104 667.875C104.792 666.792 105.979 666.25 107.562 666.25C111.271 666.333 113.146 668.5 113.188 672.75V676.688C102.812 676.729 97.1875 679.125 96.3125 683.875C96.2292 684.333 96.1875 684.833 96.1875 685.375C96.1875 688.667 97.625 690.875 100.5 692C101.583 692.417 102.75 692.625 104 692.625C107.042 692.625 109.562 691.583 111.562 689.5C112.312 688.708 112.875 687.854 113.25 686.938C113.792 690.688 115.562 692.583 118.562 692.625ZM106.312 690.062C103.688 690.062 102.188 688.604 101.812 685.688C101.771 685.271 101.75 684.833 101.75 684.375C101.75 681.583 103.292 679.812 106.375 679.062C108 678.688 110.271 678.479 113.188 678.438V683.625C112.479 686.5 110.979 688.479 108.688 689.562C107.854 689.896 107.062 690.062 106.312 690.062ZM148.188 692H157.562C157.562 691.125 157.292 690.625 156.75 690.5C156.542 690.458 156.312 690.438 156.062 690.438H152.938L152.875 651.375H141.625V652.938H147.5V667.875C145.417 665.75 142.708 664.688 139.375 664.688C134.958 664.688 131.562 666.583 129.188 670.375C127.604 673 126.812 675.979 126.812 679.312C126.812 684.438 128.458 688.208 131.75 690.625C133.583 691.958 135.625 692.625 137.875 692.625C142.458 692.542 145.708 690.167 147.625 685.5L148.188 692ZM132.75 678.562C132.75 672.729 134.25 668.938 137.25 667.188C138.208 666.604 139.292 666.312 140.5 666.312C143.458 666.312 145.542 667.958 146.75 671.25C147.375 673 147.688 675.042 147.688 677.375C147.688 682.625 146.417 686.354 143.875 688.562C142.667 689.562 141.292 690.062 139.75 690.062C136.542 690.062 134.417 688.021 133.375 683.938C132.958 682.354 132.75 680.562 132.75 678.562ZM174.625 666.25C177.458 666.25 179.292 667.542 180.125 670.125C180.375 670.917 180.5 671.75 180.5 672.625C180.5 674.667 179.583 675.917 177.75 676.375C176.708 676.625 175.271 676.729 173.438 676.688L167.312 676.5C167.479 671.583 168.979 668.396 171.812 666.938C172.688 666.479 173.625 666.25 174.625 666.25ZM185.688 685.938L184.125 685.375C182.792 688.292 180.667 690.062 177.75 690.688C177.083 690.812 176.438 690.875 175.812 690.875C171.396 690.875 168.688 688.083 167.688 682.5C167.479 681.208 167.354 679.792 167.312 678.25L174.5 678.375C179.833 678.458 183.229 677.917 184.688 676.75C185.646 675.917 186.125 674.792 186.125 673.375C186.125 670.417 184.625 668.083 181.625 666.375C179.542 665.25 177.167 664.688 174.5 664.688C169.458 664.688 165.75 666.708 163.375 670.75C162.042 673.083 161.375 675.771 161.375 678.812C161.375 684.146 163.312 688.062 167.188 690.562C169.396 691.938 171.896 692.625 174.688 692.625C179.354 692.625 182.75 690.938 184.875 687.562C185.167 687.021 185.438 686.479 185.688 685.938ZM204.312 690.438H199.812V676.688C200.104 673.104 201.312 670.417 203.438 668.625C204.146 668.042 204.75 667.75 205.25 667.75C205.875 667.75 206.479 668.271 207.062 669.312C207.729 670.479 208.396 671.167 209.062 671.375C209.354 671.458 209.646 671.5 209.938 671.5C211.312 671.5 212.208 670.854 212.625 669.562C212.708 669.229 212.75 668.917 212.75 668.625C212.75 666.708 211.792 665.542 209.875 665.125C209.458 665.042 209.021 665 208.562 665C205.979 665 203.688 666.083 201.688 668.25C200.854 669.167 200.188 670.208 199.688 671.375L199.438 665.375H190V666.938H194.438V686.75C194.438 688.667 193.875 689.812 192.75 690.188C192.167 690.354 191.25 690.438 190 690.438V692H205.875C205.875 691.083 205.562 690.583 204.938 690.5C204.771 690.458 204.562 690.438 204.312 690.438Z" fill="white" fill-opacity="0.5"/>
<path d="M402.438 134.125C406.229 134.125 408.604 135.917 409.562 139.5C409.812 140.5 409.938 141.562 409.938 142.688C409.938 148.104 407.583 151.062 402.875 151.562C402.417 151.604 401.979 151.625 401.562 151.625H396.25V134.125H402.438ZM402.562 170C402.562 169.083 402.229 168.562 401.562 168.438C401.354 168.396 401.146 168.375 400.938 168.375H396.25V153.438H401.75C408.542 153.438 413.042 151.479 415.25 147.562C416.083 146.062 416.5 144.375 416.5 142.5C416.5 138.417 414.708 135.521 411.125 133.812C409.208 132.938 406.917 132.5 404.25 132.5H385.25V134.125H390.25V168.375H385.25V170H402.562ZM434.312 168.438H429.812V154.688C430.104 151.104 431.312 148.417 433.438 146.625C434.146 146.042 434.75 145.75 435.25 145.75C435.875 145.75 436.479 146.271 437.062 147.312C437.729 148.479 438.396 149.167 439.062 149.375C439.354 149.458 439.646 149.5 439.938 149.5C441.312 149.5 442.208 148.854 442.625 147.562C442.708 147.229 442.75 146.917 442.75 146.625C442.75 144.708 441.792 143.542 439.875 143.125C439.458 143.042 439.021 143 438.562 143C435.979 143 433.688 144.083 431.688 146.25C430.854 147.167 430.188 148.208 429.688 149.375L429.438 143.375H420V144.938H424.438V164.75C424.438 166.667 423.875 167.812 422.75 168.188C422.167 168.354 421.25 168.438 420 168.438V170H435.875C435.875 169.083 435.562 168.583 434.938 168.5C434.771 168.458 434.562 168.438 434.312 168.438ZM451.375 156.625C451.417 148.417 454 144.292 459.125 144.25C464.25 144.333 466.833 148.375 466.875 156.375C466.833 164.792 464.292 169.021 459.25 169.062C454.042 168.979 451.417 164.833 451.375 156.625ZM459.312 142.688C455.104 142.688 451.646 144.125 448.938 147C446.604 149.542 445.438 152.667 445.438 156.375C445.438 161.458 447.271 165.333 450.938 168C453.354 169.75 456.062 170.625 459.062 170.625C463.188 170.625 466.583 169.167 469.25 166.25C471.667 163.625 472.875 160.396 472.875 156.562C472.875 151.479 471 147.646 467.25 145.062C464.917 143.479 462.271 142.688 459.312 142.688ZM483.875 152.688C483.875 147.479 485.542 144.688 488.875 144.312C489.167 144.271 489.458 144.25 489.75 144.25C493.167 144.25 495.083 146.375 495.5 150.625C495.542 151.25 495.562 151.938 495.562 152.688C495.188 158.188 493.25 161.062 489.75 161.312C486.083 161.312 484.125 158.812 483.875 153.812C483.875 153.438 483.875 153.062 483.875 152.688ZM489.812 142.688C485.812 142.688 482.708 143.979 480.5 146.562C479.042 148.312 478.312 150.354 478.312 152.688C478.312 155.812 479.812 158.438 482.812 160.562C483.188 160.812 483.542 161.042 483.875 161.25C481.292 161.25 479.625 162.375 478.875 164.625C478.708 165.208 478.625 165.812 478.625 166.438C478.667 168.646 479.542 170.292 481.25 171.375C479.917 172.833 479.25 174.271 479.25 175.688C479.25 177.979 480.625 179.688 483.375 180.812C485.167 181.562 487.333 181.938 489.875 181.938C496.292 181.938 500.521 180.396 502.562 177.312C503.229 176.271 503.562 175.167 503.562 174C503.562 170.292 501.458 168.167 497.25 167.625C496.708 167.542 496.146 167.5 495.562 167.5L483.875 167.25C482.083 167.125 481.167 166.333 481.125 164.875C481.125 163.833 481.75 163.188 483 162.938C483.292 162.854 483.604 162.812 483.938 162.812L489.5 162.875H489.688C493.521 162.875 496.562 161.583 498.812 159C500.354 157.167 501.125 155.042 501.125 152.625C501.083 149.5 499.896 147.021 497.562 145.188C498.188 143.729 499.062 142.938 500.188 142.812C500.771 142.812 501.417 143.146 502.125 143.812C502.583 144.229 503.021 144.438 503.438 144.438C504.479 144.438 505.104 143.917 505.312 142.875C505.354 142.667 505.375 142.5 505.375 142.375C505.375 141 504.708 140.062 503.375 139.562C502.917 139.396 502.438 139.312 501.938 139.312C499.979 139.312 498.396 140.25 497.188 142.125C496.729 142.792 496.396 143.5 496.188 144.25C494.271 143.208 492.146 142.688 489.812 142.688ZM489.875 180.312C485.625 180.312 482.938 179.25 481.812 177.125C481.521 176.542 481.375 175.958 481.375 175.375C481.417 174.292 481.875 173.208 482.75 172.125C483.5 172.333 484.229 172.438 484.938 172.438L495.188 172.562C498.104 172.604 499.812 173.208 500.312 174.375C500.479 174.792 500.562 175.229 500.562 175.688C500.562 177.562 498.833 178.917 495.375 179.75C493.708 180.125 491.875 180.312 489.875 180.312ZM521.812 168.438H517.312V154.688C517.604 151.104 518.812 148.417 520.938 146.625C521.646 146.042 522.25 145.75 522.75 145.75C523.375 145.75 523.979 146.271 524.562 147.312C525.229 148.479 525.896 149.167 526.562 149.375C526.854 149.458 527.146 149.5 527.438 149.5C528.812 149.5 529.708 148.854 530.125 147.562C530.208 147.229 530.25 146.917 530.25 146.625C530.25 144.708 529.292 143.542 527.375 143.125C526.958 143.042 526.521 143 526.062 143C523.479 143 521.188 144.083 519.188 146.25C518.354 147.167 517.688 148.208 517.188 149.375L516.938 143.375H507.5V144.938H511.938V164.75C511.938 166.667 511.375 167.812 510.25 168.188C509.667 168.354 508.75 168.438 507.5 168.438V170H523.375C523.375 169.083 523.062 168.583 522.438 168.5C522.271 168.458 522.062 168.438 521.812 168.438ZM554.938 170.625C557.938 170.625 559.729 169.125 560.312 166.125C560.396 165.5 560.458 164.833 560.5 164.125L558.875 164.062C558.583 167.062 557.792 168.583 556.5 168.625C555.458 168.542 554.917 167.479 554.875 165.438V152.25C554.792 145.917 551.354 142.729 544.562 142.688C539.729 142.688 536.521 143.792 534.938 146C534.438 146.708 534.188 147.417 534.188 148.125C534.188 149.458 534.812 150.271 536.062 150.562C536.354 150.604 536.625 150.625 536.875 150.625C538 150.625 538.812 149.958 539.312 148.625C539.896 147 540.25 146.083 540.375 145.875C541.167 144.792 542.354 144.25 543.938 144.25C547.646 144.333 549.521 146.5 549.562 150.75V154.688C539.188 154.729 533.562 157.125 532.688 161.875C532.604 162.333 532.562 162.833 532.562 163.375C532.562 166.667 534 168.875 536.875 170C537.958 170.417 539.125 170.625 540.375 170.625C543.417 170.625 545.938 169.583 547.938 167.5C548.688 166.708 549.25 165.854 549.625 164.938C550.167 168.688 551.938 170.583 554.938 170.625ZM542.688 168.062C540.062 168.062 538.562 166.604 538.188 163.688C538.146 163.271 538.125 162.833 538.125 162.375C538.125 159.583 539.667 157.812 542.75 157.062C544.375 156.688 546.646 156.479 549.562 156.438V161.625C548.854 164.5 547.354 166.479 545.062 167.562C544.229 167.896 543.438 168.062 542.688 168.062ZM574.875 168.438H572.375V154.688C572.458 151.062 573.646 148.396 575.938 146.688C576.979 145.896 578.042 145.5 579.125 145.5C581.125 145.5 582.5 146.646 583.25 148.938C583.542 149.896 583.688 150.958 583.688 152.125V164.75C583.688 166.625 583.271 167.75 582.438 168.125C581.854 168.333 580.938 168.438 579.688 168.438V170H593.062C593.062 169.083 592.75 168.583 592.125 168.5C591.958 168.458 591.75 168.438 591.5 168.438H589.062V152.812V152.125C589.729 149.083 591.146 147.021 593.312 145.938C594.062 145.562 594.792 145.375 595.5 145.375C597.583 145.375 599.042 146.479 599.875 148.688C600.25 149.688 600.438 150.833 600.438 152.125V164.75C600.438 166.625 600 167.75 599.125 168.125C598.542 168.333 597.625 168.438 596.375 168.438V170H610.25C610.25 169.083 609.938 168.583 609.312 168.5C609.146 168.458 608.938 168.438 608.688 168.438H605.75V152.75C605.75 148.542 604.354 145.562 601.562 143.812C600.312 143.062 598.958 142.688 597.5 142.688C594 142.688 591.271 144.396 589.312 147.812C589.062 148.271 588.833 148.75 588.625 149.25C587.833 146.125 586.188 144.083 583.688 143.125C582.938 142.833 582.167 142.688 581.375 142.688C578.208 142.688 575.625 144.062 573.625 146.812C573.125 147.562 572.688 148.354 572.312 149.188L572.062 143.375H562.562V144.938H567.062V164.75C567.062 166.667 566.479 167.812 565.312 168.188C564.688 168.354 563.771 168.438 562.562 168.438V170H576.375C576.375 169.083 576.083 168.583 575.5 168.5C575.292 168.458 575.083 168.438 574.875 168.438ZM625.75 168.438H623.25V154.688C623.333 151.062 624.521 148.396 626.812 146.688C627.854 145.896 628.917 145.5 630 145.5C632 145.5 633.375 146.646 634.125 148.938C634.417 149.896 634.562 150.958 634.562 152.125V164.75C634.562 166.625 634.146 167.75 633.312 168.125C632.729 168.333 631.812 168.438 630.562 168.438V170H643.938C643.938 169.083 643.625 168.583 643 168.5C642.833 168.458 642.625 168.438 642.375 168.438H639.938V152.812V152.125C640.604 149.083 642.021 147.021 644.188 145.938C644.938 145.562 645.667 145.375 646.375 145.375C648.458 145.375 649.917 146.479 650.75 148.688C651.125 149.688 651.312 150.833 651.312 152.125V164.75C651.312 166.625 650.875 167.75 650 168.125C649.417 168.333 648.5 168.438 647.25 168.438V170H661.125C661.125 169.083 660.812 168.583 660.188 168.5C660.021 168.458 659.812 168.438 659.562 168.438H656.625V152.75C656.625 148.542 655.229 145.562 652.438 143.812C651.188 143.062 649.833 142.688 648.375 142.688C644.875 142.688 642.146 144.396 640.188 147.812C639.938 148.271 639.708 148.75 639.5 149.25C638.708 146.125 637.062 144.083 634.562 143.125C633.812 142.833 633.042 142.688 632.25 142.688C629.083 142.688 626.5 144.062 624.5 146.812C624 147.562 623.562 148.354 623.188 149.188L622.938 143.375H613.438V144.938H617.938V164.75C617.938 166.667 617.354 167.812 616.188 168.188C615.562 168.354 614.646 168.438 613.438 168.438V170H627.25C627.25 169.083 626.958 168.583 626.375 168.5C626.167 168.458 625.958 168.438 625.75 168.438ZM678.188 144.25C681.021 144.25 682.854 145.542 683.688 148.125C683.938 148.917 684.062 149.75 684.062 150.625C684.062 152.667 683.146 153.917 681.312 154.375C680.271 154.625 678.833 154.729 677 154.688L670.875 154.5C671.042 149.583 672.542 146.396 675.375 144.938C676.25 144.479 677.188 144.25 678.188 144.25ZM689.25 163.938L687.688 163.375C686.354 166.292 684.229 168.062 681.312 168.688C680.646 168.812 680 168.875 679.375 168.875C674.958 168.875 672.25 166.083 671.25 160.5C671.042 159.208 670.917 157.792 670.875 156.25L678.062 156.375C683.396 156.458 686.792 155.917 688.25 154.75C689.208 153.917 689.688 152.792 689.688 151.375C689.688 148.417 688.188 146.083 685.188 144.375C683.104 143.25 680.729 142.688 678.062 142.688C673.021 142.688 669.312 144.708 666.938 148.75C665.604 151.083 664.938 153.771 664.938 156.812C664.938 162.146 666.875 166.062 670.75 168.562C672.958 169.938 675.458 170.625 678.25 170.625C682.917 170.625 686.312 168.938 688.438 165.562C688.729 165.021 689 164.479 689.25 163.938ZM707.875 168.438H703.375V154.688C703.667 151.104 704.875 148.417 707 146.625C707.708 146.042 708.312 145.75 708.812 145.75C709.438 145.75 710.042 146.271 710.625 147.312C711.292 148.479 711.958 149.167 712.625 149.375C712.917 149.458 713.208 149.5 713.5 149.5C714.875 149.5 715.771 148.854 716.188 147.562C716.271 147.229 716.312 146.917 716.312 146.625C716.312 144.708 715.354 143.542 713.438 143.125C713.021 143.042 712.583 143 712.125 143C709.542 143 707.25 144.083 705.25 146.25C704.417 147.167 703.75 148.208 703.25 149.375L703 143.375H693.562V144.938H698V164.75C698 166.667 697.438 167.812 696.312 168.188C695.729 168.354 694.812 168.438 693.562 168.438V170H709.438C709.438 169.083 709.125 168.583 708.5 168.5C708.333 168.458 708.125 168.438 707.875 168.438Z" fill="white" fill-opacity="0.5"/>
<path d="M67.1875 442.188C67.1875 443.938 67.4792 444.938 68.0625 445.188C68.3125 445.271 68.6875 445.312 69.1875 445.312V433.375H67.5625C65.4792 440.333 61.2917 443.833 55 443.875C49.2083 443.875 45.4792 440.667 43.8125 434.25C43.1875 431.875 42.875 429.188 42.875 426.188C42.875 418.229 45.0417 412.917 49.375 410.25C51.125 409.167 53.0833 408.625 55.25 408.625C61.3333 408.708 65.375 412.125 67.375 418.875H69L68.8125 407.188C67.8542 407.188 67.2708 407.5 67.0625 408.125C66.9792 408.625 66.9375 409.375 66.9375 410.375C64.5625 408.542 61.4167 407.417 57.5 407C56.625 406.917 55.75 406.875 54.875 406.875C48.2083 406.875 43.1042 409.312 39.5625 414.188C37.1042 417.646 35.875 421.625 35.875 426.125C35.875 431.583 37.5833 436.167 41 439.875C44.5833 443.708 49.2708 445.625 55.0625 445.625C59.3125 445.583 63.3542 444.438 67.1875 442.188ZM87.875 443.438H83.375V429.688C83.6667 426.104 84.875 423.417 87 421.625C87.7083 421.042 88.3125 420.75 88.8125 420.75C89.4375 420.75 90.0417 421.271 90.625 422.312C91.2917 423.479 91.9583 424.167 92.625 424.375C92.9167 424.458 93.2083 424.5 93.5 424.5C94.875 424.5 95.7708 423.854 96.1875 422.562C96.2708 422.229 96.3125 421.917 96.3125 421.625C96.3125 419.708 95.3542 418.542 93.4375 418.125C93.0208 418.042 92.5833 418 92.125 418C89.5417 418 87.25 419.083 85.25 421.25C84.4167 422.167 83.75 423.208 83.25 424.375L83 418.375H73.5625V419.938H78V439.75C78 441.667 77.4375 442.812 76.3125 443.188C75.7292 443.354 74.8125 443.438 73.5625 443.438V445H89.4375C89.4375 444.083 89.125 443.583 88.5 443.5C88.3333 443.458 88.125 443.438 87.875 443.438ZM112.25 419.25C115.083 419.25 116.917 420.542 117.75 423.125C118 423.917 118.125 424.75 118.125 425.625C118.125 427.667 117.208 428.917 115.375 429.375C114.333 429.625 112.896 429.729 111.062 429.688L104.938 429.5C105.104 424.583 106.604 421.396 109.438 419.938C110.312 419.479 111.25 419.25 112.25 419.25ZM123.312 438.938L121.75 438.375C120.417 441.292 118.292 443.062 115.375 443.688C114.708 443.812 114.062 443.875 113.438 443.875C109.021 443.875 106.312 441.083 105.312 435.5C105.104 434.208 104.979 432.792 104.938 431.25L112.125 431.375C117.458 431.458 120.854 430.917 122.312 429.75C123.271 428.917 123.75 427.792 123.75 426.375C123.75 423.417 122.25 421.083 119.25 419.375C117.167 418.25 114.792 417.688 112.125 417.688C107.083 417.688 103.375 419.708 101 423.75C99.6667 426.083 99 428.771 99 431.812C99 437.146 100.938 441.062 104.812 443.562C107.021 444.938 109.521 445.625 112.312 445.625C116.979 445.625 120.375 443.938 122.5 440.562C122.792 440.021 123.062 439.479 123.312 438.938ZM150.125 445.625C153.125 445.625 154.917 444.125 155.5 441.125C155.583 440.5 155.646 439.833 155.688 439.125L154.062 439.062C153.771 442.062 152.979 443.583 151.688 443.625C150.646 443.542 150.104 442.479 150.062 440.438V427.25C149.979 420.917 146.542 417.729 139.75 417.688C134.917 417.688 131.708 418.792 130.125 421C129.625 421.708 129.375 422.417 129.375 423.125C129.375 424.458 130 425.271 131.25 425.562C131.542 425.604 131.812 425.625 132.062 425.625C133.188 425.625 134 424.958 134.5 423.625C135.083 422 135.438 421.083 135.562 420.875C136.354 419.792 137.542 419.25 139.125 419.25C142.833 419.333 144.708 421.5 144.75 425.75V429.688C134.375 429.729 128.75 432.125 127.875 436.875C127.792 437.333 127.75 437.833 127.75 438.375C127.75 441.667 129.188 443.875 132.062 445C133.146 445.417 134.312 445.625 135.562 445.625C138.604 445.625 141.125 444.583 143.125 442.5C143.875 441.708 144.438 440.854 144.812 439.938C145.354 443.688 147.125 445.583 150.125 445.625ZM137.875 443.062C135.25 443.062 133.75 441.604 133.375 438.688C133.333 438.271 133.312 437.833 133.312 437.375C133.312 434.583 134.854 432.812 137.938 432.062C139.562 431.688 141.833 431.479 144.75 431.438V436.625C144.042 439.5 142.542 441.479 140.25 442.562C139.417 442.896 138.625 443.062 137.875 443.062ZM157.188 420H161.562V437.25C161.854 442.708 164.375 445.521 169.125 445.688C173.042 445.688 175.479 443.333 176.438 438.625C176.438 438.583 176.438 438.542 176.438 438.5L174.75 438.188C173.875 441.896 172.375 443.771 170.25 443.812C168.042 443.729 166.917 442.125 166.875 439V420H176.312V418.438H166.875V411.188L161.562 412.5V418.438H157.188V420ZM185.062 431.625C185.104 423.417 187.688 419.292 192.812 419.25C197.938 419.333 200.521 423.375 200.562 431.375C200.521 439.792 197.979 444.021 192.938 444.062C187.729 443.979 185.104 439.833 185.062 431.625ZM193 417.688C188.792 417.688 185.333 419.125 182.625 422C180.292 424.542 179.125 427.667 179.125 431.375C179.125 436.458 180.958 440.333 184.625 443C187.042 444.75 189.75 445.625 192.75 445.625C196.875 445.625 200.271 444.167 202.938 441.25C205.354 438.625 206.562 435.396 206.562 431.562C206.562 426.479 204.688 422.646 200.938 420.062C198.604 418.479 195.958 417.688 193 417.688ZM225.125 443.438H220.625V429.688C220.917 426.104 222.125 423.417 224.25 421.625C224.958 421.042 225.562 420.75 226.062 420.75C226.688 420.75 227.292 421.271 227.875 422.312C228.542 423.479 229.208 424.167 229.875 424.375C230.167 424.458 230.458 424.5 230.75 424.5C232.125 424.5 233.021 423.854 233.438 422.562C233.521 422.229 233.562 421.917 233.562 421.625C233.562 419.708 232.604 418.542 230.688 418.125C230.271 418.042 229.833 418 229.375 418C226.792 418 224.5 419.083 222.5 421.25C221.667 422.167 221 423.208 220.5 424.375L220.25 418.375H210.812V419.938H215.25V439.75C215.25 441.667 214.688 442.812 213.562 443.188C212.979 443.354 212.062 443.438 210.812 443.438V445H226.688C226.688 444.083 226.375 443.583 225.75 443.5C225.583 443.458 225.375 443.438 225.125 443.438Z" fill="white" fill-opacity="0.5"/>
<path d="M537.25 558L537.562 545.312H536.188L535 549.812C534.042 553.479 532.417 555.604 530.125 556.188C529.583 556.312 529.021 556.375 528.438 556.375H520.25V522.125H525.562V520.5H509.25V522.125H514.25V556.375H509.25V558H537.25ZM553.688 532.25C556.521 532.25 558.354 533.542 559.188 536.125C559.438 536.917 559.562 537.75 559.562 538.625C559.562 540.667 558.646 541.917 556.812 542.375C555.771 542.625 554.333 542.729 552.5 542.688L546.375 542.5C546.542 537.583 548.042 534.396 550.875 532.938C551.75 532.479 552.688 532.25 553.688 532.25ZM564.75 551.938L563.188 551.375C561.854 554.292 559.729 556.062 556.812 556.688C556.146 556.812 555.5 556.875 554.875 556.875C550.458 556.875 547.75 554.083 546.75 548.5C546.542 547.208 546.417 545.792 546.375 544.25L553.562 544.375C558.896 544.458 562.292 543.917 563.75 542.75C564.708 541.917 565.188 540.792 565.188 539.375C565.188 536.417 563.688 534.083 560.688 532.375C558.604 531.25 556.229 530.688 553.562 530.688C548.521 530.688 544.812 532.708 542.438 536.75C541.104 539.083 540.438 541.771 540.438 544.812C540.438 550.146 542.375 554.062 546.25 556.562C548.458 557.938 550.958 558.625 553.75 558.625C558.417 558.625 561.812 556.938 563.938 553.562C564.229 553.021 564.5 552.479 564.75 551.938ZM591.562 558.625C594.562 558.625 596.354 557.125 596.938 554.125C597.021 553.5 597.083 552.833 597.125 552.125L595.5 552.062C595.208 555.062 594.417 556.583 593.125 556.625C592.083 556.542 591.542 555.479 591.5 553.438V540.25C591.417 533.917 587.979 530.729 581.188 530.688C576.354 530.688 573.146 531.792 571.562 534C571.062 534.708 570.812 535.417 570.812 536.125C570.812 537.458 571.438 538.271 572.688 538.562C572.979 538.604 573.25 538.625 573.5 538.625C574.625 538.625 575.438 537.958 575.938 536.625C576.521 535 576.875 534.083 577 533.875C577.792 532.792 578.979 532.25 580.562 532.25C584.271 532.333 586.146 534.5 586.188 538.75V542.688C575.812 542.729 570.188 545.125 569.312 549.875C569.229 550.333 569.188 550.833 569.188 551.375C569.188 554.667 570.625 556.875 573.5 558C574.583 558.417 575.75 558.625 577 558.625C580.042 558.625 582.562 557.583 584.562 555.5C585.312 554.708 585.875 553.854 586.25 552.938C586.792 556.688 588.562 558.583 591.562 558.625ZM579.312 556.062C576.688 556.062 575.188 554.604 574.812 551.688C574.771 551.271 574.75 550.833 574.75 550.375C574.75 547.583 576.292 545.812 579.375 545.062C581 544.688 583.271 544.479 586.188 544.438V549.625C585.479 552.5 583.979 554.479 581.688 555.562C580.854 555.896 580.062 556.062 579.312 556.062ZM613.625 556.438H609.125V542.688C609.417 539.104 610.625 536.417 612.75 534.625C613.458 534.042 614.062 533.75 614.562 533.75C615.188 533.75 615.792 534.271 616.375 535.312C617.042 536.479 617.708 537.167 618.375 537.375C618.667 537.458 618.958 537.5 619.25 537.5C620.625 537.5 621.521 536.854 621.938 535.562C622.021 535.229 622.062 534.917 622.062 534.625C622.062 532.708 621.104 531.542 619.188 531.125C618.771 531.042 618.333 531 617.875 531C615.292 531 613 532.083 611 534.25C610.167 535.167 609.5 536.208 609 537.375L608.75 531.375H599.312V532.938H603.75V552.75C603.75 554.667 603.188 555.812 602.062 556.188C601.479 556.354 600.562 556.438 599.312 556.438V558H615.188C615.188 557.083 614.875 556.583 614.25 556.5C614.083 556.458 613.875 556.438 613.625 556.438ZM636.5 556.438H633.938V542.688C634.021 538.896 635.312 536.167 637.812 534.5C638.896 533.833 639.979 533.5 641.062 533.5C643.604 533.5 645.292 534.708 646.125 537.125C646.417 538.042 646.562 539.042 646.562 540.125V552.75C646.562 554.625 646.021 555.75 644.938 556.125C644.354 556.333 643.458 556.438 642.25 556.438V558H656.375C656.375 557.083 656.062 556.583 655.438 556.5C655.271 556.458 655.062 556.438 654.812 556.438H651.875V540.812C651.875 536.438 650.375 533.417 647.375 531.75C646.083 531.042 644.708 530.688 643.25 530.688C640.167 530.688 637.604 531.938 635.562 534.438C634.854 535.271 634.292 536.208 633.875 537.25L633.625 531.375H624.125V532.938H628.625V552.75C628.625 554.667 628.042 555.812 626.875 556.188C626.25 556.354 625.333 556.438 624.125 556.438V558H638.062C638.062 557.083 637.75 556.583 637.125 556.5C636.958 556.458 636.75 556.438 636.5 556.438ZM673.438 532.25C676.271 532.25 678.104 533.542 678.938 536.125C679.188 536.917 679.312 537.75 679.312 538.625C679.312 540.667 678.396 541.917 676.562 542.375C675.521 542.625 674.083 542.729 672.25 542.688L666.125 542.5C666.292 537.583 667.792 534.396 670.625 532.938C671.5 532.479 672.438 532.25 673.438 532.25ZM684.5 551.938L682.938 551.375C681.604 554.292 679.479 556.062 676.562 556.688C675.896 556.812 675.25 556.875 674.625 556.875C670.208 556.875 667.5 554.083 666.5 548.5C666.292 547.208 666.167 545.792 666.125 544.25L673.312 544.375C678.646 544.458 682.042 543.917 683.5 542.75C684.458 541.917 684.938 540.792 684.938 539.375C684.938 536.417 683.438 534.083 680.438 532.375C678.354 531.25 675.979 530.688 673.312 530.688C668.271 530.688 664.562 532.708 662.188 536.75C660.854 539.083 660.188 541.771 660.188 544.812C660.188 550.146 662.125 554.062 666 556.562C668.208 557.938 670.708 558.625 673.5 558.625C678.167 558.625 681.562 556.938 683.688 553.562C683.979 553.021 684.25 552.479 684.5 551.938ZM703.125 556.438H698.625V542.688C698.917 539.104 700.125 536.417 702.25 534.625C702.958 534.042 703.562 533.75 704.062 533.75C704.688 533.75 705.292 534.271 705.875 535.312C706.542 536.479 707.208 537.167 707.875 537.375C708.167 537.458 708.458 537.5 708.75 537.5C710.125 537.5 711.021 536.854 711.438 535.562C711.521 535.229 711.562 534.917 711.562 534.625C711.562 532.708 710.604 531.542 708.688 531.125C708.271 531.042 707.833 531 707.375 531C704.792 531 702.5 532.083 700.5 534.25C699.667 535.167 699 536.208 698.5 537.375L698.25 531.375H688.812V532.938H693.25V552.75C693.25 554.667 692.688 555.812 691.562 556.188C690.979 556.354 690.062 556.438 688.812 556.438V558H704.688C704.688 557.083 704.375 556.583 703.75 556.5C703.583 556.458 703.375 556.438 703.125 556.438Z" fill="white" fill-opacity="0.5"/>
<path d="M479.875 937.875L479.562 926.5H450.25V928.125H455.25V962.375H450.25V964H479.562L479.875 952.625H478.5L477.5 955.812C476.417 959.396 474.75 961.5 472.5 962.125C471.917 962.292 471.312 962.375 470.688 962.375H461.25V945.562H474V943.75H461.25V928.125H470.688C473.896 928.125 476.146 930.229 477.438 934.438C477.479 934.521 477.5 934.604 477.5 934.688L478.5 937.875H479.875ZM483.062 964H492.688V962.438H488.062L495.5 952.688L502.188 962.438H498.5V964H510.688C510.688 963.083 510.375 962.583 509.75 962.5C509.542 962.458 509.333 962.438 509.125 962.438H507.875L499.188 949.625L505.562 940.812C506.354 939.688 507.396 939.042 508.688 938.875C509.354 938.833 509.75 938.604 509.875 938.188C509.917 937.979 509.938 937.708 509.938 937.375H500.562V938.938H504.875L498.188 948.188L491.938 938.938H495.938V937.375H483.062V938.938H486.062L494.5 951.25L487.312 960.562C486.438 961.646 485.396 962.271 484.188 962.438C483.562 962.521 483.208 962.771 483.125 963.188C483.083 963.438 483.062 963.708 483.062 964ZM522.062 974.312V961.438C524.229 963.396 526.833 964.458 529.875 964.625C533.667 964.625 536.812 963.188 539.312 960.312C541.646 957.604 542.812 954.167 542.812 950C542.812 945.208 541.458 941.583 538.75 939.125C536.917 937.5 534.729 936.688 532.188 936.688C528.438 936.688 525.542 938.125 523.5 941C522.833 941.917 522.312 942.917 521.938 944L521.625 937.375H512.25V938.938H516.688V970.625C516.688 972.5 516.146 973.625 515.062 974C514.438 974.208 513.5 974.312 512.25 974.312V975.875H527.75C527.75 974.958 527.438 974.458 526.812 974.375C526.646 974.333 526.438 974.312 526.188 974.312H522.062ZM529.938 939.312C533.646 939.312 535.875 941.875 536.625 947C536.792 948.167 536.875 949.396 536.875 950.688C536.875 957.062 535.229 961 531.938 962.5C531.104 962.875 530.208 963.062 529.25 963.062C526.208 963.062 524.083 961.375 522.875 958C522.292 956.292 522 954.25 522 951.875C522 946.5 523.333 942.771 526 940.688C527.208 939.771 528.521 939.312 529.938 939.312ZM560.438 962.438H557.062V923.375H547V924.938H551.75V958.75C551.75 960.625 551.188 961.75 550.062 962.125C549.396 962.333 548.375 962.438 547 962.438V964H561.938C561.938 963.083 561.646 962.583 561.062 962.5C560.854 962.458 560.646 962.438 560.438 962.438ZM571.875 950.625C571.917 942.417 574.5 938.292 579.625 938.25C584.75 938.333 587.333 942.375 587.375 950.375C587.333 958.792 584.792 963.021 579.75 963.062C574.542 962.979 571.917 958.833 571.875 950.625ZM579.812 936.688C575.604 936.688 572.146 938.125 569.438 941C567.104 943.542 565.938 946.667 565.938 950.375C565.938 955.458 567.771 959.333 571.438 962C573.854 963.75 576.562 964.625 579.562 964.625C583.688 964.625 587.083 963.167 589.75 960.25C592.167 957.625 593.375 954.396 593.375 950.562C593.375 945.479 591.5 941.646 587.75 939.062C585.417 937.479 582.771 936.688 579.812 936.688ZM611.938 962.438H607.438V948.688C607.729 945.104 608.938 942.417 611.062 940.625C611.771 940.042 612.375 939.75 612.875 939.75C613.5 939.75 614.104 940.271 614.688 941.312C615.354 942.479 616.021 943.167 616.688 943.375C616.979 943.458 617.271 943.5 617.562 943.5C618.938 943.5 619.833 942.854 620.25 941.562C620.333 941.229 620.375 940.917 620.375 940.625C620.375 938.708 619.417 937.542 617.5 937.125C617.083 937.042 616.646 937 616.188 937C613.604 937 611.312 938.083 609.312 940.25C608.479 941.167 607.812 942.208 607.312 943.375L607.062 937.375H597.625V938.938H602.062V958.75C602.062 960.667 601.5 961.812 600.375 962.188C599.792 962.354 598.875 962.438 597.625 962.438V964H613.5C613.5 963.083 613.188 962.583 612.562 962.5C612.396 962.458 612.188 962.438 611.938 962.438ZM636.312 938.25C639.146 938.25 640.979 939.542 641.812 942.125C642.062 942.917 642.188 943.75 642.188 944.625C642.188 946.667 641.271 947.917 639.438 948.375C638.396 948.625 636.958 948.729 635.125 948.688L629 948.5C629.167 943.583 630.667 940.396 633.5 938.938C634.375 938.479 635.312 938.25 636.312 938.25ZM647.375 957.938L645.812 957.375C644.479 960.292 642.354 962.062 639.438 962.688C638.771 962.812 638.125 962.875 637.5 962.875C633.083 962.875 630.375 960.083 629.375 954.5C629.167 953.208 629.042 951.792 629 950.25L636.188 950.375C641.521 950.458 644.917 949.917 646.375 948.75C647.333 947.917 647.812 946.792 647.812 945.375C647.812 942.417 646.312 940.083 643.312 938.375C641.229 937.25 638.854 936.688 636.188 936.688C631.146 936.688 627.438 938.708 625.062 942.75C623.729 945.083 623.062 947.771 623.062 950.812C623.062 956.146 625 960.062 628.875 962.562C631.083 963.938 633.583 964.625 636.375 964.625C641.042 964.625 644.438 962.938 646.562 959.562C646.854 959.021 647.125 958.479 647.375 957.938ZM666 962.438H661.5V948.688C661.792 945.104 663 942.417 665.125 940.625C665.833 940.042 666.438 939.75 666.938 939.75C667.562 939.75 668.167 940.271 668.75 941.312C669.417 942.479 670.083 943.167 670.75 943.375C671.042 943.458 671.333 943.5 671.625 943.5C673 943.5 673.896 942.854 674.312 941.562C674.396 941.229 674.438 940.917 674.438 940.625C674.438 938.708 673.479 937.542 671.562 937.125C671.146 937.042 670.708 937 670.25 937C667.667 937 665.375 938.083 663.375 940.25C662.542 941.167 661.875 942.208 661.375 943.375L661.125 937.375H651.688V938.938H656.125V958.75C656.125 960.667 655.562 961.812 654.438 962.188C653.854 962.354 652.938 962.438 651.688 962.438V964H667.562C667.562 963.083 667.25 962.583 666.625 962.5C666.458 962.458 666.25 962.438 666 962.438Z" fill="white" fill-opacity="0.5"/>
<path d="M109.088 892.072V896.616H91.168V892.072H109.088ZM86.56 900.072H113.824V892.072H125.792V888.296H113.824V883.432H109.088V888.296H91.168V883.432H86.56V888.296H74.656V892.072H86.56V900.072ZM128.608 903.336H71.52V907.432H128.608V903.336ZM83.488 922.472H97.504V927.72H83.488V922.472ZM83.488 914.024H97.504V919.144H83.488V914.024ZM117.088 919.144H102.176V914.024H117.088V919.144ZM117.088 927.72H102.176V922.472H117.088V927.72ZM121.824 931.24V910.504H78.88V931.24H121.824ZM89.504 931.432C85.472 934.056 77.28 937.064 70.816 938.728C71.84 939.56 73.376 941.096 74.144 942.056C80.544 940.328 88.608 937.256 93.728 934.12L89.504 931.432ZM106.464 934.44C113.504 936.808 120.8 939.688 125.088 941.928L129.248 938.728C124.448 936.488 116.704 933.672 109.664 931.432L106.464 934.44ZM185.376 908.456H192.48V904.168H185.376V896.168H180.832V904.168H164.64V908.456H180.832V927.784C180.832 928.616 180.576 928.808 179.744 928.872C178.912 928.872 176.16 928.872 173.088 928.808C173.728 930.024 174.368 931.752 174.56 932.968C178.72 933.032 181.344 932.904 183.136 932.264C184.8 931.496 185.376 930.28 185.376 927.848V908.456ZM166.816 913.384C169.184 916.776 171.424 921.384 172.256 924.392L176.288 922.6C175.328 919.592 173.024 915.176 170.528 911.912L166.816 913.384ZM141.92 890.984H186.08V897.512H190.816V886.568H137.248V897.512H141.92V890.984ZM140 903.016H162.336V898.6H140V903.016ZM164.96 936.808C159.648 936.808 158.688 936.232 158.688 933.864V915.56H164.768V911.144H135.584V915.56H142.944V919.848C142.944 925.608 141.664 933.032 134.432 938.6C135.392 939.176 137.056 940.968 137.696 941.928C145.632 935.72 147.36 926.76 147.36 919.912V915.56H154.208V933.864C154.208 939.624 156.576 941.096 164.96 941.096H183.584C191.136 941.096 192.672 938.792 193.504 929.896C192.16 929.64 190.304 928.936 189.152 928.168C188.704 935.592 188 936.808 183.456 936.808H164.96ZM213.344 914.792H222.432V910.632H213.344V903.656H219.936V899.496H204.512C206.944 896.872 209.248 893.8 211.232 890.664C214.88 893.608 218.976 897.192 221.216 899.432L223.712 895.72C221.408 893.48 217.056 889.96 213.344 887.08C213.728 886.248 214.112 885.544 214.496 884.776L210.4 883.432C207.648 889.384 202.976 895.208 198.176 898.856C199.008 899.944 200.224 902.376 200.544 903.4C201.12 902.824 201.824 902.248 202.464 901.608V903.656H209.12V910.632H199.136V914.792H209.12V933.352C205.088 934.12 201.44 934.824 198.56 935.336L199.712 939.624C206.24 938.216 215.2 936.296 223.584 934.44L223.264 930.6C219.936 931.304 216.608 931.944 213.344 932.584V914.792ZM200.16 918.952C201.184 922.728 202.272 927.592 202.72 930.792L206.24 929.896C205.792 926.76 204.576 921.896 203.552 918.184L200.16 918.952ZM218.528 917.416C217.888 920.872 216.544 925.928 215.392 929.064L218.464 930.024C219.68 927.144 221.088 922.408 222.368 918.568L218.528 917.416ZM233.696 934.056V919.272H249.056V934.056H233.696ZM249.312 894.632C247.136 899.24 243.936 903.4 240.224 906.984C237.728 904.552 234.272 901.736 231.2 899.496C232.544 897.96 233.76 896.296 234.912 894.632H249.312ZM253.6 914.984H237.344C245.024 909.416 251.744 901.544 255.264 891.56L252.32 890.088L251.488 890.344H237.472C238.56 888.296 239.584 886.184 240.416 884.2L235.808 883.432C233.504 889.704 228.704 897.448 221.408 902.952C222.432 903.528 223.968 904.872 224.672 905.832C226.016 904.808 227.232 903.72 228.32 902.568C231.392 904.872 234.528 907.624 236.832 909.928C232.288 913.512 227.232 916.328 222.176 917.992C223.072 918.888 224.288 920.68 224.864 921.768C226.336 921.192 227.744 920.616 229.216 919.848V941.928H233.696V938.408H249.056V941.608H253.6V914.984Z" fill="white" fill-opacity="0.5"/>
<path d="M502.625 776C502.625 775.083 502.292 774.562 501.625 774.438C501.417 774.396 501.208 774.375 501 774.375H496.688V740.125H499.875C503.333 740.167 505.625 742.312 506.75 746.562L507.938 751H509.688L509.438 738.5H478.25L477.938 751H479.688L480.875 746.562C482.042 742.312 484.354 740.167 487.812 740.125H490.688V774.375H484.75V776H502.625ZM536 776.625C539 776.625 540.792 775.125 541.375 772.125C541.458 771.5 541.521 770.833 541.562 770.125L539.938 770.062C539.646 773.062 538.854 774.583 537.562 774.625C536.521 774.542 535.979 773.479 535.938 771.438V758.25C535.854 751.917 532.417 748.729 525.625 748.688C520.792 748.688 517.583 749.792 516 752C515.5 752.708 515.25 753.417 515.25 754.125C515.25 755.458 515.875 756.271 517.125 756.562C517.417 756.604 517.688 756.625 517.938 756.625C519.062 756.625 519.875 755.958 520.375 754.625C520.958 753 521.312 752.083 521.438 751.875C522.229 750.792 523.417 750.25 525 750.25C528.708 750.333 530.583 752.5 530.625 756.75V760.688C520.25 760.729 514.625 763.125 513.75 767.875C513.667 768.333 513.625 768.833 513.625 769.375C513.625 772.667 515.062 774.875 517.938 776C519.021 776.417 520.188 776.625 521.438 776.625C524.479 776.625 527 775.583 529 773.5C529.75 772.708 530.312 771.854 530.688 770.938C531.229 774.688 533 776.583 536 776.625ZM523.75 774.062C521.125 774.062 519.625 772.604 519.25 769.688C519.208 769.271 519.188 768.833 519.188 768.375C519.188 765.583 520.729 763.812 523.812 763.062C525.438 762.688 527.708 762.479 530.625 762.438V767.625C529.917 770.5 528.417 772.479 526.125 773.562C525.292 773.896 524.5 774.062 523.75 774.062ZM556.688 774.438H553.75V749.375H543.688V750.938H548.438V770.75C548.438 772.667 547.792 773.812 546.5 774.188C545.875 774.354 544.938 774.438 543.688 774.438V776H558.25C558.25 775.083 557.938 774.583 557.312 774.5C557.146 774.458 556.938 774.438 556.688 774.438ZM554.438 740.438C554.438 738.938 553.771 737.833 552.438 737.125C551.896 736.875 551.354 736.75 550.812 736.75C549.271 736.75 548.167 737.438 547.5 738.812C547.25 739.354 547.125 739.896 547.125 740.438C547.125 742.021 547.833 743.146 549.25 743.812C549.75 744.021 550.271 744.125 550.812 744.125C552.312 744.125 553.396 743.438 554.062 742.062C554.312 741.521 554.438 740.979 554.438 740.438ZM573.125 750.938V749.375H560.375V750.938H563.125L570.812 771.875C571.688 774.25 572.583 775.646 573.5 776.062C573.917 776.229 574.479 776.312 575.188 776.312H576.562L582.062 759.625L586.375 771.875C587.167 774.25 587.958 775.625 588.75 776C589.167 776.208 589.75 776.312 590.5 776.312H591.688L599.312 753.125C599.729 751.833 600.25 751.125 600.875 751C601.083 750.958 601.292 750.938 601.5 750.938C602.417 750.938 602.917 750.604 603 749.938C603.042 749.771 603.062 749.583 603.062 749.375H593.875V750.938H598.188L591.438 771.812L584.312 750.938H588.562V749.375H578.5L581.188 757L576.25 772.062L568.625 750.938H573.125ZM627.438 776.625C630.438 776.625 632.229 775.125 632.812 772.125C632.896 771.5 632.958 770.833 633 770.125L631.375 770.062C631.083 773.062 630.292 774.583 629 774.625C627.958 774.542 627.417 773.479 627.375 771.438V758.25C627.292 751.917 623.854 748.729 617.062 748.688C612.229 748.688 609.021 749.792 607.438 752C606.938 752.708 606.688 753.417 606.688 754.125C606.688 755.458 607.312 756.271 608.562 756.562C608.854 756.604 609.125 756.625 609.375 756.625C610.5 756.625 611.312 755.958 611.812 754.625C612.396 753 612.75 752.083 612.875 751.875C613.667 750.792 614.854 750.25 616.438 750.25C620.146 750.333 622.021 752.5 622.062 756.75V760.688C611.688 760.729 606.062 763.125 605.188 767.875C605.104 768.333 605.062 768.833 605.062 769.375C605.062 772.667 606.5 774.875 609.375 776C610.458 776.417 611.625 776.625 612.875 776.625C615.917 776.625 618.438 775.583 620.438 773.5C621.188 772.708 621.75 771.854 622.125 770.938C622.667 774.688 624.438 776.583 627.438 776.625ZM615.188 774.062C612.562 774.062 611.062 772.604 610.688 769.688C610.646 769.271 610.625 768.833 610.625 768.375C610.625 765.583 612.167 763.812 615.25 763.062C616.875 762.688 619.146 762.479 622.062 762.438V767.625C621.354 770.5 619.854 772.479 617.562 773.562C616.729 773.896 615.938 774.062 615.188 774.062ZM647.438 774.438H644.875V760.688C644.958 756.896 646.25 754.167 648.75 752.5C649.833 751.833 650.917 751.5 652 751.5C654.542 751.5 656.229 752.708 657.062 755.125C657.354 756.042 657.5 757.042 657.5 758.125V770.75C657.5 772.625 656.958 773.75 655.875 774.125C655.292 774.333 654.396 774.438 653.188 774.438V776H667.312C667.312 775.083 667 774.583 666.375 774.5C666.208 774.458 666 774.438 665.75 774.438H662.812V758.812C662.812 754.438 661.312 751.417 658.312 749.75C657.021 749.042 655.646 748.688 654.188 748.688C651.104 748.688 648.542 749.938 646.5 752.438C645.792 753.271 645.229 754.208 644.812 755.25L644.562 749.375H635.062V750.938H639.562V770.75C639.562 772.667 638.979 773.812 637.812 774.188C637.188 774.354 636.271 774.438 635.062 774.438V776H649C649 775.083 648.688 774.583 648.062 774.5C647.896 774.458 647.688 774.438 647.438 774.438ZM684.375 750.25C687.208 750.25 689.042 751.542 689.875 754.125C690.125 754.917 690.25 755.75 690.25 756.625C690.25 758.667 689.333 759.917 687.5 760.375C686.458 760.625 685.021 760.729 683.188 760.688L677.062 760.5C677.229 755.583 678.729 752.396 681.562 750.938C682.438 750.479 683.375 750.25 684.375 750.25ZM695.438 769.938L693.875 769.375C692.542 772.292 690.417 774.062 687.5 774.688C686.833 774.812 686.188 774.875 685.562 774.875C681.146 774.875 678.438 772.083 677.438 766.5C677.229 765.208 677.104 763.792 677.062 762.25L684.25 762.375C689.583 762.458 692.979 761.917 694.438 760.75C695.396 759.917 695.875 758.792 695.875 757.375C695.875 754.417 694.375 752.083 691.375 750.375C689.292 749.25 686.917 748.688 684.25 748.688C679.208 748.688 675.5 750.708 673.125 754.75C671.792 757.083 671.125 759.771 671.125 762.812C671.125 768.146 673.062 772.062 676.938 774.562C679.146 775.938 681.646 776.625 684.438 776.625C689.104 776.625 692.5 774.938 694.625 771.562C694.917 771.021 695.188 770.479 695.438 769.938ZM709.812 774.938C712.688 774.938 714.562 774.042 715.438 772.25C715.729 771.667 715.875 771.062 715.875 770.438C715.875 768.604 714.583 767.042 712 765.75C711.458 765.458 710.562 765.042 709.312 764.5C705.979 763.083 703.75 761.75 702.625 760.5C701.458 759.167 700.875 757.604 700.875 755.812C700.875 752.854 702.5 750.75 705.75 749.5C707.292 748.958 708.958 748.688 710.75 748.688C713.583 748.688 715.979 749.271 717.938 750.438C717.938 749.229 718.229 748.542 718.812 748.375C719.021 748.333 719.292 748.312 719.625 748.312V756.125H717.938C717.854 752.292 715.729 750.354 711.562 750.312C708.562 750.312 706.688 751.229 705.938 753.062C705.771 753.562 705.688 754.062 705.688 754.562C705.688 756.354 706.958 757.875 709.5 759.125C710.083 759.417 710.979 759.812 712.188 760.312C715.562 761.688 717.812 762.979 718.938 764.188C720.146 765.562 720.75 767.188 720.75 769.062C720.75 772.521 718.938 774.812 715.312 775.938C713.896 776.396 712.354 776.625 710.688 776.625C707.562 776.583 704.854 775.854 702.562 774.438C702.562 775.521 702.292 776.146 701.75 776.312C701.5 776.354 701.208 776.375 700.875 776.375V766.875H702.688C702.771 772.208 705.146 774.896 709.812 774.938ZM738.75 750.25C741.583 750.25 743.417 751.542 744.25 754.125C744.5 754.917 744.625 755.75 744.625 756.625C744.625 758.667 743.708 759.917 741.875 760.375C740.833 760.625 739.396 760.729 737.562 760.688L731.438 760.5C731.604 755.583 733.104 752.396 735.938 750.938C736.812 750.479 737.75 750.25 738.75 750.25ZM749.812 769.938L748.25 769.375C746.917 772.292 744.792 774.062 741.875 774.688C741.208 774.812 740.562 774.875 739.938 774.875C735.521 774.875 732.812 772.083 731.812 766.5C731.604 765.208 731.479 763.792 731.438 762.25L738.625 762.375C743.958 762.458 747.354 761.917 748.812 760.75C749.771 759.917 750.25 758.792 750.25 757.375C750.25 754.417 748.75 752.083 745.75 750.375C743.667 749.25 741.292 748.688 738.625 748.688C733.583 748.688 729.875 750.708 727.5 754.75C726.167 757.083 725.5 759.771 725.5 762.812C725.5 768.146 727.438 772.062 731.312 774.562C733.521 775.938 736.021 776.625 738.812 776.625C743.479 776.625 746.875 774.938 749 771.562C749.292 771.021 749.562 770.479 749.812 769.938Z" fill="white" fill-opacity="0.5"/>
</svg>
